<?xml version="1.0" encoding="UTF-8" standalone="no"?>
<!-- Created with Inkscape (http://www.inkscape.org/) -->

<svg
   xmlns:dc="http://purl.org/dc/elements/1.1/"
   xmlns:cc="http://creativecommons.org/ns#"
   xmlns:rdf="http://www.w3.org/1999/02/22-rdf-syntax-ns#"
   xmlns:svg="http://www.w3.org/2000/svg"
   xmlns="http://www.w3.org/2000/svg"
   xmlns:sodipodi="http://sodipodi.sourceforge.net/DTD/sodipodi-0.dtd"
   xmlns:inkscape="http://www.inkscape.org/namespaces/inkscape"
   width="68.659668mm"
   height="21.753857mm"
   viewBox="0 0 243.28228 77.080593"
   id="svg4570"
   version="1.1"
   inkscape:version="0.92.4 (5da689c313, 2019-01-14)"
   sodipodi:docname="logo.svg">
  <defs
     id="defs4572">
    <clipPath
       clipPathUnits="userSpaceOnUse"
       id="clipPath81">
      <g
         inkscape:label="Clip"
         id="use83">
        <path
           style="fill:#000000;stroke-width:0.56495184"
           d="m 79.814816,35.503886 c -0.969084,0.125171 -1.877092,0.389082 -2.716622,0.79226 -2.631235,1.263622 -4.434318,4.304752 -5.127598,8.645305 -0.213575,1.337281 -0.217993,6.103932 -0.0066,7.547406 0.801926,5.476146 3.190898,8.567698 7.185481,9.299638 0.83414,0.152842 3.467131,0.03983 4.416996,-0.18979 0.757618,-0.183151 1.739329,-0.616232 2.204634,-0.972112 0.203033,-0.155266 0.204682,-0.213959 0.02757,-0.797774 -0.105245,-0.346937 -0.247946,-0.839502 -0.316684,-1.094595 l -0.124685,-0.464543 -0.912527,0.418195 c -3.294126,1.509444 -6.547757,0.530744 -8.275663,-2.489319 -1.964122,-3.432919 -2.062164,-10.933524 -0.1931,-14.827777 0.627096,-1.306575 1.932197,-2.632387 3.014549,-3.061993 0.664609,-0.26381 0.957746,-0.299701 2.397735,-0.294617 1.447129,0.0051 1.756678,0.04627 2.633867,0.348683 0.546777,0.188502 1.017625,0.319723 1.046042,0.291306 0.09168,-0.09168 0.65083,-2.287451 0.602471,-2.365736 -0.08427,-0.136345 -1.866138,-0.613475 -2.768485,-0.741499 C 81.81474,35.392635 80.7839,35.378721 79.81481,35.503874 Z m 60.615354,0.107036 c -1.59591,0.0028 -3.28437,0.05011 -3.75273,0.104821 l -0.85184,0.09931 v 12.91003 12.91003 l 1.04053,0.07614 c 0.57244,0.04186 1.29654,0.09422 1.60878,0.11586 2.7911,0.193276 5.13147,-0.02079 6.55212,-0.598058 2.28713,-0.929345 4.25348,-3.143832 5.19491,-5.850341 0.98572,-2.833833 1.25355,-7.643505 0.62674,-11.257106 -0.49263,-2.840058 -1.30147,-4.578963 -2.84572,-6.118473 -1.12423,-1.120786 -2.00019,-1.623678 -3.67109,-2.107536 -0.91698,-0.265533 -1.24109,-0.289199 -3.9017,-0.284679 z m -31.22352,0.18427 v 3.797979 c 0,3.566586 -0.0134,3.792838 -0.22068,3.710807 -0.51758,-0.204807 -1.91887,-0.439109 -2.63276,-0.441369 -3.34012,-0.0095 -5.66067,2.044092 -6.482604,5.737792 -0.332181,1.492789 -0.453532,4.259302 -0.269234,6.132812 0.404678,4.113844 1.707638,6.288315 4.183068,6.982454 1.03313,0.289702 2.67215,0.190039 3.55964,-0.216269 0.78658,-0.360117 1.60438,-1.048923 1.99609,-1.68272 0.14594,-0.23615 0.30811,-0.430335 0.36082,-0.430335 0.0527,0 0.1633,0.303243 0.24606,0.673089 0.0828,0.36984 0.20886,0.880771 0.27917,1.135417 l 0.12689,0.462334 h 0.89157 0.89046 l -0.0905,-0.47226 c -0.0499,-0.2602 -0.11597,-6.080073 -0.14676,-12.932103 l -0.0563,-12.457628 h -1.31749 -1.31749 z m -16.572281,6.978036 c -1.180969,-0.08414 -2.414135,0.109799 -3.442675,0.600261 -0.894573,0.426579 -2.020081,1.557177 -2.506974,2.518008 -1.44548,2.852515 -1.595265,8.900482 -0.303441,12.233636 0.792639,2.045165 2.35264,3.354226 4.405963,3.697564 0.640955,0.10716 1.867019,0.08322 2.594141,-0.05073 3.599737,-0.663248 5.399193,-4.202903 5.187189,-10.206652 -0.141927,-4.019101 -0.988439,-6.351273 -2.80159,-7.722846 -0.822739,-0.622362 -1.951643,-0.985072 -3.132613,-1.069216 z"
           id="path90"
           inkscape:connector-curvature="0" />
        <path
           style="fill:#ffffff;stroke-width:0.56495184"
           d="m 106.62024,45.324342 c 1.12461,0.0034 1.33284,0.04113 1.92326,0.348677 l 0.66315,0.345372 v 5.229114 c 0,4.494034 -0.0291,5.313881 -0.20523,5.832687 -0.2988,0.880246 -0.85881,1.623406 -1.51169,2.00602 -0.87002,0.509858 -2.04237,0.554743 -2.91303,0.11255 -1.01778,-0.51692 -1.71826,-1.754475 -2.08326,-3.682119 -0.25013,-1.321004 -0.2068,-5.303265 0.0695,-6.411983 0.44429,-1.782734 1.1795,-2.909575 2.2907,-3.511085 0.42366,-0.229359 0.70744,-0.272623 1.76658,-0.269233 z"
           id="path92"
           inkscape:connector-curvature="0" />
        <path
           style="fill:#ffffff;stroke-width:0.56495184"
           d="m 92.048452,45.196346 c 1.35841,0.0034 2.227763,0.567765 2.876622,1.866985 0.653994,1.309496 0.820711,2.351262 0.833083,5.196014 0.0126,2.894209 -0.147446,4.008046 -0.765775,5.325112 -0.387794,0.825999 -1.251436,1.601153 -1.991675,1.787542 -1.265656,0.3187 -2.294835,0.05986 -3.112755,-0.782323 -1.031133,-1.061731 -1.488326,-2.692549 -1.582306,-5.637383 -0.13091,-4.102132 0.595239,-6.522375 2.23443,-7.442579 0.462131,-0.259455 0.730082,-0.315628 1.508376,-0.313368 z"
           id="path94"
           inkscape:connector-curvature="0" />
        <path
           style="fill:#ffffff;stroke-width:0.56495184"
           d="m 139.37641,38.146584 c 1.19569,-0.124979 2.92554,-0.09535 3.66557,0.06179 2.03161,0.431403 3.62258,1.996568 4.45782,4.387207 0.57594,1.648479 0.7437,2.989042 0.7437,5.941926 0,2.883571 -0.1644,4.268352 -0.70508,5.928684 -0.84333,2.589637 -2.41359,4.22641 -4.53286,4.725951 -0.75577,0.178147 -2.50896,0.224981 -3.86749,0.102618 L 138.6018,59.24623 V 48.737238 38.228253 l 0.77461,-0.08165 z"
           id="path96"
           inkscape:connector-curvature="0" />
      </g>
    </clipPath>
    <style
       id="style6"
       type="text/css">
   
    .fil1 {fill:#FEFEFE}
    .fil0 {fill:black}
    .fil2 {fill:white}
   
  </style>
    <clipPath
       clipPathUnits="userSpaceOnUse"
       id="clipPath858">
      <rect
         style="fill:#ffffff;fill-opacity:1;stroke:#ff0000;stroke-width:243.9430542;stroke-opacity:1"
         id="rect860"
         width="26058.887"
         height="25258.016"
         x="-2964.3206"
         y="-1120.8248" />
    </clipPath>
    <clipPath
       clipPathUnits="userSpaceOnUse"
       id="clipPath870">
      <rect
         style="fill:#ffffff;fill-opacity:1;stroke:#ff0000;stroke-width:0.9375;stroke-opacity:1"
         id="rect872"
         width="150.33482"
         height="51.89732"
         x="69.120926"
         y="24.809467" />
    </clipPath>
  </defs>
  <sodipodi:namedview
     id="base"
     pagecolor="#ffffff"
     bordercolor="#666666"
     borderopacity="1.0"
     inkscape:pageopacity="0.0"
     inkscape:pageshadow="2"
     inkscape:zoom="2.8"
     inkscape:cx="30.350886"
     inkscape:cy="121.373"
     inkscape:document-units="px"
     inkscape:current-layer="layer1"
     showgrid="false"
     fit-margin-top="1"
     fit-margin-left="1"
     fit-margin-right="1"
     fit-margin-bottom="1"
     inkscape:window-width="1920"
     inkscape:window-height="986"
     inkscape:window-x="2029"
     inkscape:window-y="-11"
     inkscape:window-maximized="1" />
  <metadata
     id="metadata4575">
    <rdf:RDF>
      <cc:Work
         rdf:about="">
        <dc:format>image/svg+xml</dc:format>
        <dc:type
           rdf:resource="http://purl.org/dc/dcmitype/StillImage" />
        <dc:title></dc:title>
      </cc:Work>
    </rdf:RDF>
  </metadata>
  <g
     inkscape:label="Layer 1"
     inkscape:groupmode="layer"
     id="layer1"
     transform="translate(2.6024613,-13.351711)">
    <rect
       style="opacity:1;fill:#ffffff;fill-opacity:1;stroke:#000000;stroke-width:1.09606266;stroke-miterlimit:4;stroke-dasharray:none;stroke-opacity:1"
       id="rect846"
       width="238.78264"
       height="69.989342"
       x="-0.18523008"
       y="17.44305"
       ry="34.994671"
       inkscape:export-xdpi="600.47998"
       inkscape:export-ydpi="600.47998" />
    <g
       id="g158"
       style="fill:#000000"
       inkscape:export-xdpi="600.47998"
       inkscape:export-ydpi="600.47998"
       transform="matrix(1.0155932,0,0,1.0155932,-2.2328457,3.4090082)">
      <path
         d="m 178.97269,45.196346 c 1.35841,0.0034 2.22777,0.567765 2.87662,1.866985 0.654,1.309496 0.82071,2.351262 0.83308,5.196014 0.0126,2.894209 -0.14744,4.008046 -0.76577,5.325112 -0.38779,0.825999 -1.25144,1.601153 -1.99168,1.787542 -1.26565,0.3187 -2.29483,0.05986 -3.11275,-0.782323 -1.03114,-1.061731 -1.48943,-2.692549 -1.58341,-5.637383 -0.13091,-4.102132 0.59635,-6.522375 2.23553,-7.442579 0.46214,-0.259455 0.73009,-0.315628 1.50838,-0.313368 z m -19.47428,-2.423118 c -1.18097,-0.08414 -2.41304,0.109799 -3.44158,0.600261 -0.89458,0.426579 -2.02009,1.557177 -2.50697,2.518008 -1.44549,2.852515 -1.59636,8.900482 -0.30454,12.233636 0.79263,2.045165 2.35263,3.354226 4.40595,3.697564 0.64095,0.10716 1.86813,0.08322 2.59525,-0.05073 3.59974,-0.663248 5.39808,-4.202903 5.18608,-10.206652 -0.14192,-4.019101 -0.98732,-6.351273 -2.80048,-7.722846 -0.82274,-0.622362 -1.95275,-0.985072 -3.13371,-1.069216 z m 20.05909,0 c -1.18096,-0.08414 -2.41303,0.109799 -3.44157,0.600261 -0.89458,0.426579 -2.02008,1.557177 -2.50697,2.518008 -1.44548,2.852515 -1.59637,8.900482 -0.30454,12.233636 0.79263,2.045165 2.35264,3.354226 4.40595,3.697564 0.64096,0.10716 1.86813,0.08322 2.59525,-0.05073 3.59974,-0.663248 5.39808,-4.202903 5.18608,-10.206652 -0.14193,-4.019101 -0.98732,-6.351273 -2.80048,-7.722846 -0.82274,-0.622362 -1.95275,-0.985072 -3.13372,-1.069216 z m -11.93902,0.338751 -0.003,10.124999 c -0.002,6.144794 -0.0528,10.470743 -0.1302,11.006628 -0.23039,1.5943 -0.80644,2.358968 -1.91664,2.541182 l -0.47337,0.07723 v 1.174044 1.174037 l 0.34647,0.0552 h 10e-4 c 0.59828,0.09479 1.71086,-0.05576 2.30174,-0.311164 0.73433,-0.317407 1.2083,-0.774871 1.60217,-1.546996 0.88638,-1.737623 0.92136,-2.265271 0.92136,-14.02228 V 43.112002 h -1.32521 -1.32411 z m -8.70599,2.084367 c 1.35841,0.0034 2.22887,0.567765 2.87772,1.866985 0.654,1.309496 0.82071,2.351262 0.83308,5.196014 0.0126,2.894209 -0.14744,4.008046 -0.76577,5.325112 -0.38779,0.825999 -1.25144,1.601153 -1.99168,1.787542 -1.26565,0.3187 -2.29484,0.05986 -3.11275,-0.782323 -1.03114,-1.061731 -1.48943,-2.692549 -1.58341,-5.637383 -0.13091,-4.102132 0.59634,-6.522375 2.23553,-7.442579 0.46213,-0.259455 0.72898,-0.315628 1.50728,-0.313368 z"
         style="fill:#000000;stroke-width:0.56495184"
         id="path3412"
         inkscape:connector-curvature="0" />
      <path
         style="fill:#000000;stroke-width:0.56495184"
         d="m 119.28751,42.800815 c -0.79096,0.09152 -1.5332,0.312819 -2.1627,0.655434 -0.85165,0.463526 -1.96874,1.700302 -2.47166,2.736486 -0.98982,2.039289 -1.37558,5.190907 -1.02288,8.354004 0.4516,4.049942 2.03873,6.416751 4.78554,7.13472 1.94101,0.50735 4.64807,0.06594 6.21778,-1.014043 l 0.5804,-0.399438 -0.39061,-0.850738 c -0.21465,-0.467741 -0.4341,-0.900516 -0.48771,-0.961079 -0.0536,-0.06058 -0.26271,0.0075 -0.46454,0.15117 -0.83704,0.596024 -1.6678,0.827999 -2.99469,0.835286 -1.06671,0.0058 -1.35206,-0.03746 -1.84492,-0.280266 -1.63011,-0.803153 -2.50891,-2.557176 -2.71442,-5.421109 l -0.0827,-1.167422 h 4.67299 4.67409 l 0.0905,-1.574583 c 0.27788,-4.817897 -1.00687,-7.458753 -3.9304,-8.07815 -0.82358,-0.174491 -1.66303,-0.211789 -2.45401,-0.120272 z m 13.74091,0.09379 c -1.1013,0.07765 -1.96632,0.598188 -2.62724,1.574583 -0.24286,0.358773 -0.47117,0.653711 -0.50648,0.656536 -0.0353,0.0023 -0.16542,-0.449012 -0.29019,-1.004117 l -0.22731,-1.009631 h -0.93901 -0.93901 v 9.210263 9.209155 h 1.32521 1.3241 v -6.859973 c 0,-7.352944 0.004,-7.404812 0.64771,-8.275663 0.62095,-0.83988 1.9278,-1.193969 3.21206,-0.870596 0.31094,0.07831 0.59854,0.109849 0.63888,0.06951 0.0871,-0.08705 0.56776,-2.378374 0.51089,-2.435248 -0.0216,-0.02158 -0.44791,-0.109578 -0.94784,-0.195309 -0.42069,-0.07214 -0.81467,-0.0954 -1.18177,-0.06951 z m -12.36825,2.317184 c 0.43818,0.102872 0.8525,0.316514 1.20494,0.651016 0.72997,0.692807 1.21145,2.18981 1.21597,3.778116 l 0.002,0.788949 h -3.40295 -3.40405 l 0.0739,-0.599159 c 0.13399,-1.08773 0.41823,-2.170065 0.73377,-2.792761 0.73126,-1.443073 2.26164,-2.134777 3.57619,-1.826161 z"
         id="path3408"
         inkscape:connector-curvature="0" />
      <path
         d="m 139.37641,38.146584 c 1.19569,-0.124979 2.92554,-0.09535 3.66557,0.06179 2.03161,0.431403 3.62258,1.996568 4.45782,4.387207 0.57594,1.648479 0.7437,2.989042 0.7437,5.941926 0,2.883571 -0.1644,4.268352 -0.70508,5.928684 -0.84333,2.589637 -2.41359,4.22641 -4.53286,4.725951 -0.75577,0.178147 -2.50896,0.224981 -3.86749,0.102618 L 138.6018,59.24623 V 48.737238 38.228253 l 0.77461,-0.08165 z m -47.327958,7.049762 c 1.35841,0.0034 2.227763,0.567765 2.876622,1.866985 0.653994,1.309496 0.820711,2.351262 0.833083,5.196014 0.0126,2.894209 -0.147446,4.008046 -0.765775,5.325112 -0.387794,0.825999 -1.251436,1.601153 -1.991675,1.787542 -1.265656,0.3187 -2.294835,0.05986 -3.112755,-0.782323 -1.031133,-1.061731 -1.488326,-2.692549 -1.582306,-5.637383 -0.13091,-4.102132 0.595239,-6.522375 2.23443,-7.442579 0.462131,-0.259455 0.730082,-0.315628 1.508376,-0.313368 z m 14.571788,0.127996 c 1.12461,0.0034 1.33284,0.04113 1.92326,0.348677 l 0.66315,0.345372 v 5.229114 c 0,4.494034 -0.0291,5.313881 -0.20523,5.832687 -0.2988,0.880246 -0.85881,1.623406 -1.51169,2.00602 -0.87002,0.509858 -2.04237,0.554743 -2.91303,0.11255 -1.01778,-0.51692 -1.71826,-1.754475 -2.08326,-3.682119 -0.25013,-1.321004 -0.2068,-5.303265 0.0695,-6.411983 0.44429,-1.782734 1.1795,-2.909575 2.2907,-3.511085 0.42366,-0.229359 0.70744,-0.272623 1.76658,-0.269233 z M 79.814816,35.503886 c -0.969084,0.125171 -1.877092,0.389082 -2.716622,0.79226 -2.631235,1.263622 -4.434318,4.304752 -5.127598,8.645305 -0.213575,1.337281 -0.217993,6.103932 -0.0066,7.547406 0.801926,5.476146 3.190898,8.567698 7.185481,9.299638 0.83414,0.152842 3.467131,0.03983 4.416996,-0.18979 0.757618,-0.183151 1.739329,-0.616232 2.204634,-0.972112 0.203033,-0.155266 0.204682,-0.213959 0.02757,-0.797774 -0.105245,-0.346937 -0.247946,-0.839502 -0.316684,-1.094595 l -0.124685,-0.464543 -0.912527,0.418195 c -3.294126,1.509444 -6.547757,0.530744 -8.275663,-2.489319 -1.964122,-3.432919 -2.062164,-10.933524 -0.1931,-14.827777 0.627096,-1.306575 1.932197,-2.632387 3.014549,-3.061993 0.664609,-0.26381 0.957746,-0.299701 2.397735,-0.294617 1.447129,0.0051 1.756678,0.04627 2.633867,0.348683 0.546777,0.188502 1.017625,0.319723 1.046042,0.291306 0.09168,-0.09168 0.65083,-2.287451 0.602471,-2.365736 -0.08427,-0.136345 -1.866138,-0.613475 -2.768485,-0.741499 C 81.81474,35.392635 80.7839,35.378721 79.81481,35.503874 Z m 60.615354,0.107036 c -1.59591,0.0028 -3.28437,0.05011 -3.75273,0.104821 l -0.85184,0.09931 v 12.91003 12.91003 l 1.04053,0.07614 c 0.57244,0.04186 1.29654,0.09422 1.60878,0.11586 2.7911,0.193276 5.13147,-0.02079 6.55212,-0.598058 2.28713,-0.929345 4.25348,-3.143832 5.19491,-5.850341 0.98572,-2.833833 1.25355,-7.643505 0.62674,-11.257106 -0.49263,-2.840058 -1.30147,-4.578963 -2.84572,-6.118473 -1.12423,-1.120786 -2.00019,-1.623678 -3.67109,-2.107536 -0.91698,-0.265533 -1.24109,-0.289199 -3.9017,-0.284679 z m -31.22352,0.18427 v 3.797979 c 0,3.566586 -0.0134,3.792838 -0.22068,3.710807 -0.51758,-0.204807 -1.91887,-0.439109 -2.63276,-0.441369 -3.34012,-0.0095 -5.66067,2.044092 -6.482604,5.737792 -0.332181,1.492789 -0.453532,4.259302 -0.269234,6.132812 0.404678,4.113844 1.707638,6.288315 4.183068,6.982454 1.03313,0.289702 2.67215,0.190039 3.55964,-0.216269 0.78658,-0.360117 1.60438,-1.048923 1.99609,-1.68272 0.14594,-0.23615 0.30811,-0.430335 0.36082,-0.430335 0.0527,0 0.1633,0.303243 0.24606,0.673089 0.0828,0.36984 0.20886,0.880771 0.27917,1.135417 l 0.12689,0.462334 h 0.89157 0.89046 l -0.0905,-0.47226 c -0.0499,-0.2602 -0.11597,-6.080073 -0.14676,-12.932103 l -0.0563,-12.457628 h -1.31749 -1.31749 z m -16.572281,6.978036 c -1.180969,-0.08414 -2.414135,0.109799 -3.442675,0.600261 -0.894573,0.426579 -2.020081,1.557177 -2.506974,2.518008 -1.44548,2.852515 -1.595265,8.900482 -0.303441,12.233636 0.792639,2.045165 2.35264,3.354226 4.405963,3.697564 0.640955,0.10716 1.867019,0.08322 2.594141,-0.05073 3.599737,-0.663248 5.399193,-4.202903 5.187189,-10.206652 -0.141927,-4.019101 -0.988439,-6.351273 -2.80159,-7.722846 -0.822739,-0.622362 -1.951643,-0.985072 -3.132613,-1.069216 z"
         style="fill:#000000;stroke-width:0.56495184"
         id="path3404"
         inkscape:connector-curvature="0" />
      <path
         style="fill:#000000;stroke-width:0.56495184"
         d="m 169.29678,35.721262 c -0.4291,-0.09075 -0.8876,-0.03424 -1.26231,0.194202 -0.5647,0.344327 -0.80119,0.762098 -0.87391,1.541483 -0.0767,0.821671 0.19137,1.413464 0.83639,1.848228 0.35619,0.240348 0.55838,0.286307 1.04936,0.240546 1.13391,-0.105646 1.78779,-0.914205 1.67941,-2.077741 -0.0372,-0.399664 -0.17272,-0.818152 -0.34207,-1.055974 -0.25795,-0.362264 -0.65776,-0.599995 -1.08687,-0.690744 z m 24.05791,0.07393 v 12.8681 12.868105 h 6.18137 6.18247 v -0.872805 c 0,-0.868987 0.009,-0.892726 1.87802,-4.721546 1.03334,-2.116388 2.03532,-4.315712 2.2256,-4.887053 l 0.34537,-1.03832 0.47226,1.249075 c 0.25942,0.687445 1.44273,3.26571 2.63056,5.728967 l 2.1605,4.478786 1.58782,0.03531 c 0.8733,0.01949 1.56311,-0.0087 1.53266,-0.0629 -0.0304,-0.05412 -1.51298,-3.06044 -3.29372,-6.680114 l -3.23744,-6.580808 2.76187,-5.27987 c 1.51921,-2.903982 2.96926,-5.690562 3.22199,-6.192403 l 0.45902,-0.912527 h -1.55693 -1.55802 l -2.14947,4.446787 c -1.18251,2.445919 -2.28193,4.858467 -2.44298,5.361528 -0.16106,0.503056 -0.32756,0.914736 -0.36965,0.914736 -0.0421,0 -0.20787,-0.41168 -0.36854,-0.914736 -0.16066,-0.503061 -1.20781,-2.915745 -2.32711,-5.361528 l -2.03471,-4.446787 h -1.54589 c -0.85,-1.24e-4 -1.5459,0.02576 -1.5459,0.05738 0,0.03164 1.3353,2.877882 2.9671,6.324811 l 2.9671,6.26744 -2.74641,5.280972 -2.74642,5.282079 h -3.43716 -3.43826 V 47.402082 35.795192 h -1.387 z"
         id="path3402"
         inkscape:connector-curvature="0" />
    </g>
    <path
       id="path3416"
       style="fill:#000000;stroke-width:0.56495184"
       d="m 41.842771,55.223134 h 2.136224 l 0.03311,5.267735 0.03311,5.266633 0.427024,0.04085 c 0.235116,0.02243 0.56219,0.008 0.726054,-0.03311 0.295119,-0.07407 0.297922,-0.09191 0.297922,-1.814027 0,-1.184031 0.04808,-1.787061 0.151169,-1.890159 0.08326,-0.08326 0.388326,-0.15117 0.678603,-0.15117 0.677683,0 0.679654,0.0065 0.681914,2.71552 0.0011,1.742108 -0.03491,2.201256 -0.194202,2.428632 -0.194812,0.277589 -0.224986,0.28086 -3.628047,0.279166 -3.377689,-0.0017 -3.433862,-0.006 -3.651227,-0.278064 -0.121425,-0.151967 -0.220682,-0.37184 -0.220682,-0.488813 0,-0.116974 0.09926,-0.332209 0.220682,-0.477786 0.194671,-0.233387 0.377868,-0.268713 1.545894,-0.297921 l 1.324106,-0.03311 0.03311,-4.509688 0.03311,-4.510784 h -1.304242 c -1.200229,0 -1.325468,-0.0226 -1.577894,-0.291306 -0.325237,-0.346192 -0.343587,-0.563625 -0.07834,-0.942318 0.189801,-0.271007 0.268188,-0.280272 2.33263,-0.280272 z m 0.172136,-31.091107 c -1.481423,0.07442 -2.990703,0.229303 -3.8366,0.429228 -0.312243,0.0738 -0.766775,0.166627 -1.009631,0.206343 -0.24285,0.03966 -0.554172,0.12003 -0.692947,0.178751 -0.138775,0.05874 -0.649706,0.226675 -1.135417,0.372958 -0.485712,0.146283 -0.996649,0.314125 -1.135424,0.37406 -0.138774,0.05993 -0.479395,0.207027 -0.756945,0.326616 -0.744273,0.320678 -2.710842,1.312428 -2.881034,1.453203 -0.353801,0.292651 -1.476462,1.004112 -1.584514,1.004112 -0.06527,5e-6 -0.137996,0.04288 -0.161102,0.09489 -0.02311,0.05203 -0.296837,0.293261 -0.609086,0.535162 -0.312243,0.241907 -0.675146,0.525021 -0.806599,0.630052 -0.879545,0.702771 -3.839028,3.841186 -3.975628,4.216173 -0.02774,0.07618 -0.08861,0.166135 -0.135724,0.200823 -0.04712,0.03469 -0.350439,0.461024 -0.674191,0.946735 -0.323745,0.485718 -0.649971,0.956644 -0.724946,1.046048 -0.478294,0.570398 -1.982625,4.125504 -2.413186,5.703584 -0.973542,3.568202 -1.172071,8.239438 -0.484401,11.386209 0.07203,0.329593 0.181079,0.840524 0.242754,1.135417 0.159221,0.761278 0.590708,2.169986 0.898183,2.932897 0.05593,0.13878 0.195847,0.507592 0.31117,0.819841 0.492921,1.334603 2.512725,4.867856 2.872204,5.024981 0.05294,0.02316 0.096,0.10081 0.096,0.172135 0,0.236461 1.030071,1.406408 2.644901,3.003515 1.753039,1.733798 1.73456,1.717674 2.906411,2.525731 0.451024,0.311006 0.848049,0.597041 0.882737,0.63557 0.03469,0.03853 0.517423,0.329192 1.072528,0.646605 1.654433,0.946045 4.316429,2.12188 4.804299,2.12188 0.15983,0 0.3207,0.05005 0.358609,0.111442 0.03791,0.06139 0.226534,0.143566 0.4182,0.183169 0.191665,0.0396 0.603594,0.129142 0.915837,0.19862 1.082386,0.240844 1.959519,0.403036 2.754141,0.51088 0.439193,0.0596 0.835874,0.146238 0.881635,0.191999 0.122453,0.122453 4.869913,-0.01774 5.826066,-0.172135 0.451018,-0.07282 1.07586,-0.19575 1.388103,-0.272544 0.312244,-0.0768 0.76677,-0.170638 1.009631,-0.208547 0.242856,-0.03791 0.497768,-0.109606 0.567156,-0.16 0.06939,-0.05039 0.410013,-0.166626 0.75695,-0.258199 1.155027,-0.304882 4.931052,-2.024596 5.235736,-2.384493 0.03469,-0.04096 0.19035,-0.146085 0.346474,-0.232822 l 0.568262,-0.314475 c 0.156125,-0.08674 0.311786,-0.189281 0.346474,-0.227302 0.03469,-0.03802 0.262511,-0.205072 0.505366,-0.371857 0.242856,-0.16678 0.469577,-0.338649 0.504265,-0.380682 0.03469,-0.04209 0.193265,-0.165231 0.351988,-0.273646 0.158723,-0.108419 0.66966,-0.564658 1.135423,-1.014043 2.181364,-2.104649 3.466262,-3.651928 4.589132,-5.523732 0.642904,-1.071708 1.745611,-3.327244 1.745611,-3.571772 0,-0.08901 0.04683,-0.215456 0.103719,-0.281374 0.190796,-0.221066 0.997055,-2.961698 1.167422,-3.967905 0.355976,-2.102452 0.425923,-2.907785 0.425923,-4.857258 0,-3.848384 -0.690897,-6.986443 -2.307258,-10.471473 -0.779334,-1.680313 -2.375164,-4.312441 -2.702277,-4.45782 -0.05203,-0.02311 -0.09379,-0.09318 -0.09379,-0.155582 0,-0.165514 -0.507807,-0.726969 -2.207945,-2.441874 -1.572741,-1.586408 -1.970445,-1.948112 -2.71221,-2.468354 -0.242855,-0.170333 -0.551811,-0.410737 -0.686326,-0.534054 -0.134509,-0.123312 -0.292763,-0.223998 -0.351993,-0.223998 -0.05924,0 -0.176598,-0.05763 -0.260409,-0.127996 C 55.659256,27.552484 53.564285,26.45289 51.961155,25.815845 49.883782,24.990343 48.65604,24.671117 45.68489,24.183886 44.949984,24.06337 43.496335,24.057608 42.014913,24.132026 Z m 1.274452,0.519711 c 1.05642,0.06589 2.142608,0.188383 2.263118,0.304542 0.06592,0.06355 0.223359,0.114759 0.349784,0.114759 0.301232,0 1.635033,0.612758 2.431942,1.116661 0.691259,0.437092 1.411335,1.055816 2.618417,2.250983 0.872483,0.863868 0.900295,0.897629 1.369347,1.616508 0.808141,1.238561 1.234934,2.124236 1.458722,3.027791 0.03435,0.138775 0.109663,0.36549 0.167723,0.504265 0.230359,0.55058 0.305549,1.342631 0.297922,3.153578 -0.01294,3.076649 -0.502649,4.685473 -2.130705,7.002312 -0.837818,1.192269 -2.199837,2.550153 -2.72435,2.716622 -0.130532,0.04141 -0.237234,0.117753 -0.237234,0.168825 0,0.05107 -0.283092,0.231879 -0.62895,0.401647 -0.345864,0.169779 -0.628927,0.350716 -0.630057,0.402748 -0.0011,0.05203 -0.116114,0.09489 -0.254889,0.09489 -0.138781,0 -0.251579,0.05638 -0.251579,0.125787 0,0.06939 -0.110278,0.126893 -0.244957,0.126893 -0.134685,0 -0.280425,0.05638 -0.323305,0.125793 -0.04288,0.06939 -0.213196,0.125792 -0.378473,0.125792 -0.165282,0 -0.331514,0.05085 -0.369648,0.112544 -0.0984,0.159203 -0.784475,0.263787 -2.595247,0.395025 -2.180624,0.158034 -2.944168,0.253624 -3.084061,0.387303 -0.06592,0.06302 -0.275453,0.114759 -0.465645,0.114759 -0.190191,0 -0.380834,0.05638 -0.423713,0.125786 -0.04288,0.06939 -0.216823,0.126894 -0.386201,0.126894 -0.169373,0 -0.307854,0.05638 -0.307854,0.125792 0,0.06939 -0.07416,0.125787 -0.164407,0.125787 -0.232099,0 -0.842987,0.297176 -0.844117,0.410477 -5.42e-4,0.05203 -0.115013,0.09489 -0.253787,0.09489 -0.138775,6e-6 -0.251585,0.05638 -0.251585,0.125792 0,0.06939 -0.06149,0.125792 -0.135718,0.125792 -0.28995,0 -1.663687,1.054506 -2.550006,1.956366 -0.473537,0.481842 -1.389087,1.670105 -1.603271,2.081051 -0.09041,0.173463 -0.198796,0.343785 -0.240545,0.378473 -0.04175,0.03469 -0.138397,0.205004 -0.215168,0.378478 -0.07677,0.173463 -0.261844,0.562523 -0.410477,0.863975 -0.148622,0.301459 -0.270335,0.652005 -0.270335,0.78012 0,0.128131 -0.05006,0.264431 -0.111448,0.302339 -0.06139,0.03791 -0.148893,0.254731 -0.194202,0.481091 -0.04531,0.226359 -0.143295,0.694687 -0.218479,1.04163 -0.195219,0.900894 -0.279741,3.977266 -0.113651,4.143351 0.07327,0.07327 0.133515,0.374399 0.133515,0.668671 0,0.294278 0.05638,0.570624 0.125792,0.613504 0.06939,0.04288 0.126894,0.241392 0.126894,0.441368 0,0.199971 0.05638,0.398489 0.125787,0.441369 0.06939,0.04288 0.125792,0.176869 0.125792,0.297922 0,0.354631 0.957926,2.195577 1.575684,3.028893 0.285657,0.385331 2.047939,2.133472 2.440767,2.420903 0.231506,0.169384 0.487526,0.368117 0.568263,0.441369 0.08074,0.07327 0.401669,0.27177 0.713912,0.441368 0.312244,0.169599 0.587031,0.350717 0.610194,0.402749 0.02311,0.05203 0.126255,0.0949 0.229511,0.0949 0.103257,0 0.275505,0.08792 0.382891,0.195309 0.107408,0.107386 0.166192,0.224416 0.130204,0.260403 -0.03599,0.03599 -0.103205,0.0057 -0.148966,-0.06841 -0.04576,-0.074 -0.306939,-0.134616 -0.580398,-0.134616 -0.273454,0 -0.496542,-0.05751 -0.496542,-0.126894 0,-0.06939 -0.195982,-0.125792 -0.434747,-0.125792 -0.238754,0 -0.469108,-0.05638 -0.511988,-0.125787 -0.04288,-0.06939 -0.245025,-0.126894 -0.449091,-0.126894 -0.204066,0 -0.37075,-0.05638 -0.37075,-0.125792 0,-0.06939 -0.114069,-0.125786 -0.253787,-0.125786 -0.139719,0 -0.366434,-0.05751 -0.504265,-0.126894 l -0.502056,-0.251585 c -0.137837,-0.06939 -0.33635,-0.126893 -0.441369,-0.126893 -0.105024,0 -0.190891,-0.05638 -0.190891,-0.125787 0,-0.06939 -0.113906,-0.125792 -0.25268,-0.125792 -0.138775,0 -0.251585,-0.05751 -0.251585,-0.126894 0,-0.06939 -0.13091,-0.125786 -0.2913,-0.125786 -0.160384,0 -0.413788,-0.113912 -0.562743,-0.252686 -0.148955,-0.138781 -0.35866,-0.251579 -0.465645,-0.251579 -0.106979,0 -0.194202,-0.05751 -0.194202,-0.126894 0,-0.06939 -0.08958,-0.125792 -0.19862,-0.125792 -0.109036,0 -0.27734,-0.07105 -0.37406,-0.157786 -0.379981,-0.340762 -0.555659,-0.473367 -0.627842,-0.473367 -0.131041,0 -1.629683,-1.044556 -1.842715,-1.284384 -0.112222,-0.126329 -0.264324,-0.229512 -0.338751,-0.229512 -0.175598,0 -3.557434,-3.353446 -3.557434,-3.527638 0,-0.0729 -0.170304,-0.311825 -0.378472,-0.529642 -0.208162,-0.217823 -0.378473,-0.448651 -0.378473,-0.513095 0,-0.06443 -0.164367,-0.282431 -0.366337,-0.484401 -0.201965,-0.201965 -0.443742,-0.537993 -0.536264,-0.747013 -0.09252,-0.209021 -0.198337,-0.37958 -0.236133,-0.37958 -0.0378,0 -0.237003,-0.327079 -0.44247,-0.726054 -0.205462,-0.398974 -0.416923,-0.743714 -0.468955,-0.766877 -0.05203,-0.02311 -0.09379,-0.150588 -0.09379,-0.283577 0,-0.132996 -0.05751,-0.242754 -0.126894,-0.242754 -0.06939,0 -0.125792,-0.112804 -0.125792,-0.251579 0,-0.138775 -0.05638,-0.252686 -0.125786,-0.252686 -0.06939,0 -0.126894,-0.113906 -0.126894,-0.25268 0,-0.138775 -0.05638,-0.251579 -0.125792,-0.251579 -0.06939,0 -0.125792,-0.110284 -0.125792,-0.244963 0,-0.134685 -0.05751,-0.28042 -0.126894,-0.3233 -0.06939,-0.04288 -0.125787,-0.213195 -0.125787,-0.378478 0,-0.165276 -0.05638,-0.335592 -0.125792,-0.378472 -0.06939,-0.04288 -0.126894,-0.21319 -0.126894,-0.378473 0,-0.165276 -0.05638,-0.335592 -0.125786,-0.378472 -0.06939,-0.04288 -0.125792,-0.245031 -0.125792,-0.449092 0,-0.204066 -0.0575,-0.370749 -0.126894,-0.370749 -0.06939,0 -0.125792,-0.170311 -0.125792,-0.378473 0,-0.208162 -0.05638,-0.378478 -0.125787,-0.378478 -0.06939,0 -0.126894,-0.22419 -0.126894,-0.497644 0,-0.273459 -0.05638,-0.531998 -0.125792,-0.574878 -0.06939,-0.04288 -0.125787,-0.31813 -0.125787,-0.612402 0,-0.294272 -0.05344,-0.58951 -0.118069,-0.655429 -0.346948,-0.353688 -0.344897,-7.0694 0.0023,-7.430444 0.06336,-0.06592 0.11586,-0.392986 0.11586,-0.726047 0,-0.333062 0.05638,-0.60468 0.125787,-0.60468 0.06939,0 0.125792,-0.284216 0.125792,-0.631153 0,-0.346936 0.05751,-0.631158 0.126894,-0.631158 0.06939,0 0.125786,-0.17031 0.125786,-0.378473 0,-0.208162 0.05638,-0.378478 0.125793,-0.378478 0.06939,0 0.126893,-0.17031 0.126893,-0.378472 0,-0.208162 0.05638,-0.378473 0.125793,-0.378473 0.06939,0 0.125786,-0.166683 0.125786,-0.370749 0,-0.204072 0.05751,-0.406212 0.126894,-0.449092 0.06939,-0.04288 0.125792,-0.188626 0.125792,-0.323305 0,-0.134679 0.05638,-0.243856 0.125787,-0.243856 0.06941,0 0.126317,-0.100358 0.125792,-0.221789 -0.0011,-0.282684 1.011066,-2.301732 1.154179,-2.301732 0.05936,0 0.108138,-0.113911 0.108138,-0.252686 0,-0.138775 0.04938,-0.251579 0.110341,-0.251579 0.06097,0 0.181908,-0.17031 0.268131,-0.378472 0.08622,-0.208162 0.206055,-0.378478 0.267025,-0.378478 0.06097,0 0.111448,-0.07499 0.111448,-0.165514 0,-0.09052 0.198513,-0.381473 0.441368,-0.646605 0.242862,-0.265143 0.441369,-0.537156 0.441369,-0.604673 0,-0.06752 0.17031,-0.282227 0.378473,-0.476678 0.208162,-0.194457 0.378472,-0.416251 0.378472,-0.493231 0,-0.182723 2.856103,-3.03882 3.038825,-3.03882 0.07698,0 0.290504,-0.15739 0.474469,-0.349784 0.398687,-0.416968 1.608085,-1.289904 1.78644,-1.289904 0.06923,0 0.125792,-0.05045 0.125792,-0.111442 0,-0.06097 0.170305,-0.180813 0.378473,-0.26703 0.208162,-0.08623 0.378472,-0.207162 0.378472,-0.268132 0,-0.06097 0.100539,-0.110341 0.223998,-0.110341 0.123459,0 0.306034,-0.1139 0.406059,-0.252686 0.100025,-0.138774 0.243958,-0.25268 0.318887,-0.25268 0.210315,0 0.815401,-0.303181 0.816531,-0.40937 5.42e-4,-0.05203 0.113905,-0.0949 0.252686,-0.0949 0.138774,0 0.25268,-0.05638 0.25268,-0.125792 0,-0.06939 0.110279,-0.126888 0.244963,-0.126888 0.134679,0 0.279318,-0.05638 0.322198,-0.125792 0.04288,-0.06939 0.216823,-0.125792 0.386195,-0.125792 0.169378,0 0.307859,-0.05751 0.307859,-0.126894 0,-0.06939 0.166678,-0.125787 0.37075,-0.125787 0.204066,0 0.406212,-0.05638 0.449092,-0.125792 0.04288,-0.06939 0.245019,-0.126894 0.449091,-0.126894 0.204066,0 0.37075,-0.05638 0.37075,-0.125786 0,-0.06939 0.17031,-0.125792 0.378472,-0.125792 0.208162,0 0.378473,-0.05751 0.378473,-0.126894 0,-0.06939 0.227817,-0.125792 0.505366,-0.125792 0.27755,0 0.504265,-0.05638 0.504265,-0.125787 0,-0.06939 0.284216,-0.126894 0.631158,-0.126894 0.346937,0 0.630052,-0.05638 0.630052,-0.125792 0,-0.07424 0.44173,-0.125787 1.072527,-0.125787 0.67401,0 1.072527,-0.05022 1.072527,-0.134622 0,-0.108646 1.026839,-0.09899 2.08326,-0.03311 z"
       clip-path="url(#clipPath870)"
       inkscape:connector-curvature="0"
       transform="matrix(1.0155932,0,0,1.0155932,-0.32860853,92.908155)" />
    <g
       style="clip-rule:evenodd;fill-rule:evenodd;image-rendering:optimizeQuality;shape-rendering:geometricPrecision;text-rendering:geometricPrecision"
       id="g854"
       transform="matrix(0.00251833,0,0,0.00251833,10.55481,25.875029)"
       clip-path="url(#clipPath858)"
       inkscape:export-xdpi="600.47998"
       inkscape:export-ydpi="600.47998">
      <g
         id="Layer_x0020_1">
        <metadata
           id="CorelCorpID_0Corel-Layer" />
        <path
           id="path10"
           d="m 29165,12881 v 1956 c -19,581 -135,1104 -349,1549 -174,387 -446,756 -833,1046 -387,309 -910,484 -1607,484 -698,0 -1240,-175 -1627,-484 -387,-290 -639,-659 -813,-1046 -213,-445 -329,-968 -349,-1549 V 6450 c 20,-562 135,-1085 349,-1530 174,-387 426,-775 813,-1065 387,-290 930,-485 1627,-485 698,0 1220,195 1607,485 387,291 659,678 833,1065 213,446 330,968 349,1530 V 8406 H 27209 V 6450 c 0,-387 -97,-659 -310,-891 -97,-97 -271,-155 -484,-155 -368,0 -542,271 -639,523 -57,155 -77,330 -97,524 v 8387 c 20,406 136,678 330,890 97,98 232,155 406,155 446,0 620,-232 717,-523 57,-135 77,-310 77,-523 v -1956 z m 6096,2305 c -57,1027 -367,1743 -1045,2305 -349,291 -833,426 -1472,426 -1260,0 -1879,-698 -2189,-1395 -174,-406 -290,-871 -309,-1394 V 9801 c 58,-1027 367,-1781 1045,-2362 330,-292 814,-427 1453,-427 1259,0 1898,698 2208,1375 174,407 290,853 309,1357 v 5443 z M 33421,9800 c 20,-406 -58,-697 -252,-930 -97,-97 -252,-155 -426,-155 -369,0 -524,252 -601,542 -58,155 -77,330 -58,542 v 5327 c -19,406 78,698 252,910 97,97 232,155 407,155 367,0 542,-232 619,-523 58,-155 78,-330 58,-542 V 9799 Z m 8141,7961 h -1956 v -698 c -329,310 -619,542 -987,717 -195,97 -388,135 -562,135 -542,0 -910,-310 -1143,-717 -252,-387 -367,-910 -367,-1355 V 9083 c 0,-445 116,-968 367,-1375 233,-387 601,-698 1143,-698 367,0 756,213 1046,427 174,135 329,271 503,426 V 3524 h 1956 z M 39606,9490 c 0,-310 -291,-639 -581,-639 -291,0 -523,271 -523,639 v 5946 c 0,369 232,639 523,639 290,0 581,-271 581,-639 z m 8425,4474 v 1221 c -58,1027 -367,1743 -1065,2305 -349,291 -833,426 -1472,426 -1259,0 -1898,-698 -2208,-1395 -174,-406 -290,-871 -310,-1394 V 9800 c 58,-1027 387,-1781 1085,-2362 330,-292 814,-427 1453,-427 1259,0 1898,698 2208,1375 174,407 290,853 309,1357 v 3080 h -3235 v 2305 c 20,406 135,698 310,910 97,97 232,155 407,155 368,0 542,-232 619,-523 58,-155 77,-330 77,-542 v -1163 h 1821 z m -3235,-2673 h 1414 V 9799 c 0,-406 -77,-697 -271,-930 -97,-97 -252,-155 -426,-155 -369,0 -524,252 -620,542 -58,155 -77,330 -97,542 v 1492 z m 8451,-2111 c -174,-58 -367,-77 -542,-77 -309,0 -678,39 -987,329 -369,310 -427,639 -427,968 v 7361 H 49335 V 7165 h 1956 v 1182 c 20,-135 155,-465 465,-775 310,-291 775,-562 1491,-562 z m 854,8581 V 3524 h 1647 c 1936,0 2983,387 3544,1472 542,1085 620,2867 620,5656 0,2789 -78,4552 -620,5637 -561,1085 -1608,1472 -3544,1472 z m 2093,-2092 c 716,0 1123,-78 1336,-776 97,-329 175,-833 194,-1511 20,-678 20,-1588 20,-2751 0,-1162 0,-2072 -20,-2751 -19,-658 -97,-1162 -194,-1511 -212,-678 -619,-755 -1336,-755 v 10053 z m 9937,-484 c -57,1027 -367,1743 -1045,2305 -349,291 -833,426 -1472,426 -1260,0 -1879,-698 -2189,-1395 -174,-406 -291,-871 -309,-1394 V 9800 c 58,-1027 368,-1781 1045,-2362 330,-292 814,-427 1453,-427 1259,0 1898,698 2208,1375 174,407 290,853 309,1357 v 5443 z M 64291,9799 c 20,-406 -58,-697 -252,-930 -97,-97 -252,-155 -426,-155 -369,0 -524,252 -601,542 -58,155 -77,330 -58,542 v 5327 c -19,406 78,698 252,910 97,97 232,155 407,155 368,0 542,-232 619,-523 58,-155 78,-330 58,-542 V 9798 Z m 3143,-6276 h 1956 v 1956 h -1956 z m 1956,3642 v 10866 c 0,542 0,1395 -271,2093 -271,716 -871,1278 -1976,1278 -309,0 -523,-20 -658,-58 -78,-20 -135,-39 -194,-58 v -1801 c 58,19 116,19 174,38 135,20 252,39 369,39 329,0 484,-271 561,-600 20,-155 39,-330 39,-504 0,-175 0,-330 0,-446 V 7165 Z m 6387,8020 c -57,1027 -368,1743 -1045,2305 -349,291 -833,426 -1472,426 -1260,0 -1879,-698 -2189,-1395 -174,-406 -290,-871 -309,-1394 V 9800 c 58,-1027 367,-1781 1045,-2362 330,-292 814,-427 1453,-427 1259,0 1898,698 2208,1375 174,407 290,853 309,1357 v 5443 z M 73937,9799 c 20,-406 -58,-697 -252,-930 -97,-97 -252,-155 -426,-155 -368,0 -524,252 -601,542 -58,155 -77,330 -58,542 v 5327 c -19,406 78,698 252,910 97,97 232,155 407,155 368,0 542,-232 620,-523 58,-155 78,-330 58,-542 V 9798 Z"
           class="fil0"
           inkscape:connector-curvature="0"
           style="fill:#000000" />
        <g
           id="_833871744">
          <circle
             id="circle13"
             r="10483"
             cy="10690"
             cx="10646"
             class="fil1"
             style="fill:#fefefe" />
          <path
             id="path15"
             d="m 10690,0 c 5904,0 10690,4786 10690,10690 0,5904 -4786,10690 -10690,10690 C 4786,21380 0,16594 0,10690 0,4786 4786,0 10690,0 Z m -108,553 c -50,0 -100,1 -150,2 -5528,80 -9989,4590 -9989,10136 0,5553 4471,10066 10008,10136 -2738,-69 -4938,-2313 -4938,-5067 0,-2798 2271,-5069 5069,-5069 2798,0 5069,-2271 5069,-5069 0,-2798 -2271,-5069 -5069,-5069 z"
             class="fil0"
             inkscape:connector-curvature="0"
             style="fill:#000000" />
          <path
             id="path17"
             d="M 8982,6619 V 2840 c 0,-165 60,-308 181,-428 120,-120 263,-181 429,-181 h 1970 c 163,0 304,60 423,181 119,120 178,263 178,428 v 3779 c 0,168 -60,311 -178,430 -119,119 -263,178 -431,178 H 9592 c -170,0 -315,-59 -433,-178 -118,-119 -176,-262 -176,-430 z m 2557,-23 V 2871 H 9614 v 3725 z"
             class="fil0"
             inkscape:connector-curvature="0"
             style="fill:#000000" />
          <path
             id="path19"
             d="m 9702,18043 h 970 v -3725 h -954 c -88,0 -162,-31 -224,-92 -62,-61 -92,-136 -92,-224 0,-87 31,-162 92,-223 61,-61 136,-92 224,-92 h 1586 v 4357 h 632 v -1315 c 0,-85 31,-159 92,-222 61,-63 136,-94 223,-94 88,0 163,31 224,92 61,62 92,136 92,224 v 1631 c 0,88 -31,163 -92,225 -61,61 -135,91 -224,91 H 9702 c -88,0 -162,-32 -223,-95 -62,-64 -92,-140 -92,-228 0,-85 31,-158 92,-219 61,-60 136,-90 223,-90 z"
             class="fil2"
             inkscape:connector-curvature="0"
             style="fill:#ffffff" />
        </g>
      </g>
    </g>
  </g>
</svg>
