<?xml version="1.0" standalone="no"?>
<!DOCTYPE svg PUBLIC "-//W3C//DTD SVG 20010904//EN"
 "http://www.w3.org/TR/2001/REC-SVG-20010904/DTD/svg10.dtd">
<svg version="1.0" xmlns="http://www.w3.org/2000/svg"
 width="500.000000pt" height="500.000000pt" viewBox="0 0 500.000000 500.000000"
 preserveAspectRatio="xMidYMid meet">
<metadata>
Created by potrace 1.11, written by Peter Selinger 2001-2013
</metadata>
<g transform="translate(0.000000,500.000000) scale(0.100000,-0.100000)"
fill="#000000" stroke="none">
<path d="M2309 4976 c-2 -2 -38 -7 -79 -10 -103 -8 -258 -35 -350 -60 -8 -2
-35 -9 -60 -16 -58 -15 -216 -68 -255 -85 -16 -7 -59 -26 -95 -41 -81 -35
-198 -96 -268 -141 -29 -18 -55 -33 -58 -33 -5 0 -65 -41 -74 -50 -3 -3 -21
-17 -40 -30 -137 -94 -361 -306 -483 -458 -103 -128 -211 -298 -287 -452 -39
-76 -70 -142 -70 -145 0 -4 -6 -21 -14 -38 -53 -119 -115 -348 -147 -542 -18
-113 -23 -181 -23 -350 -1 -187 7 -341 19 -377 2 -7 6 -32 9 -55 6 -47 8 -55
36 -178 95 -411 325 -829 627 -1141 63 -65 222 -208 268 -243 6 -4 26 -18 45
-31 19 -14 37 -27 40 -30 10 -10 153 -102 195 -126 247 -137 501 -233 743
-278 12 -3 30 -7 40 -10 9 -2 37 -7 62 -10 25 -3 56 -8 69 -11 120 -23 497
-23 631 0 14 2 47 7 73 10 50 5 225 43 237 50 3 2 19 6 34 9 31 6 181 52 211
66 11 5 64 27 117 49 189 79 367 184 548 325 113 87 279 247 355 341 22 28 43
52 47 55 3 3 29 37 57 75 28 39 54 75 59 80 13 16 122 194 122 199 0 3 13 27
28 53 35 58 121 260 155 363 28 82 73 254 82 310 3 19 7 46 10 60 37 200 45
473 21 690 -54 468 -215 865 -510 1255 -77 102 -307 334 -411 414 -44 35 -87
68 -95 74 -28 23 -155 104 -225 144 -167 97 -399 191 -595 243 -70 19 -197 43
-283 55 -27 4 -59 9 -70 11 -28 7 -442 16 -448 10z"/>
</g>
</svg>
